<svg width="753" height="838" viewBox="0 0 753 838" fill="none" xmlns="http://www.w3.org/2000/svg">
<path d="M139.055 853.387C169.612 822.83 185.838 783.402 188.037 743.367L188.189 743.518C197.212 583.151 259.16 479.348 493.076 492.542L492.773 492.238C560.332 496.105 629.256 472.524 680.892 420.812C776.961 324.668 776.961 168.926 680.892 72.7811C584.823 -23.2877 429.005 -23.2877 332.861 72.7811C281.224 124.417 257.568 193.265 261.435 260.9L261.131 260.597C274.4 494.665 170.673 556.613 10.2302 565.636L10.3819 565.788C-29.6531 567.986 -69.0815 584.213 -99.6385 614.77C-165.529 680.661 -165.529 787.496 -99.6385 853.387C-33.6718 919.278 73.164 919.278 139.055 853.387Z" fill="#FFF6EB"/>
</svg>
